<!DOCTYPE svg PUBLIC "-//W3C//DTD SVG 1.1//EN" "http://www.w3.org/Graphics/SVG/1.1/DTD/svg11.dtd">

<svg xmlns="http://www.w3.org/2000/svg" viewBox="0 0 508 526">

<path fill="#040404" d="M203.791 77.108c-14.262 16.694-24.375 41.475-25.461 62.392l-.572 11 5.371 3.206c7.627 4.552 17.661 9.018 47.871 21.304 14.575 5.927 31.384 13.075 37.354 15.884 12.843 6.042 10.806 5.733 13.528 2.051l2.259-3.054-21.47-21.877c-37.267-37.974-48.974-57.221-52.975-87.093l-1.242-9.271-4.663 5.458m-86.556 26.116c-34.022 59.627-25.911 110.932 21.956 138.888 10.131 5.917 22.421 11.575 44.309 20.402 10.45 4.214 23.175 9.492 28.277 11.729 8.984 3.938 9.322 4.006 10.719 2.162 2.352-3.105 11.361-15.752 24.508-34.405 6.784-9.625 15.22-21.496 18.746-26.38 3.527-4.883 6.622-9.425 6.878-10.093.485-1.265-19.199-10.004-53.128-23.587-58.863-23.565-88.604-48.37-96.78-80.716l-1.334-5.276-4.151 7.276m87.525 2.526c-2.46 2.587-2.533 2.942-1.236 6 1.691 3.985 2.359 4.026 5.871.359 2.695-2.813 2.727-2.973 1.162-6-1.968-3.804-2.491-3.836-5.797-.359m-86.806 8.315c-2.35 3.301-1.798 9.435.849 9.435 2.523 0 5.085-5.524 4.002-8.629-1.441-4.135-2.371-4.289-4.851-.806m92.651 5.826c-2.695 2.813-2.727 2.973-1.162 6 1.963 3.794 2.303 3.814 6.369.359l3.236-2.75-2.01-3.25c-2.457-3.975-2.943-4.002-6.433-.359m-86.988 8.153c-2.688 3.194-2.631 3.958.617 8.303 1.937 2.591 7.467-4.169 5.862-7.167-2.227-4.161-3.714-4.422-6.479-1.136m94.84 5.001c-2.753 2.874-2.834 3.192-1.437 5.67 2.094 3.713 3.37 3.802 7.075.491l3.254-2.907-2.243-3.15c-2.761-3.877-3.03-3.881-6.649-.104m-86.269 6.915c-2.839 3.84-2.761 5.618.338 7.649 4.823 3.16 9.453-3.873 5.394-8.194-2.868-3.053-3.087-3.033-5.732.545m94.972 5.79-3.264 2.75 2.802 3.294 2.802 3.294 3.816-3.171 3.815-3.171-2.753-2.873c-3.359-3.507-3.205-3.504-7.218-.123m-85.255 5.903-2.258 3.654 2.892 2.306c2.735 2.18 2.995 2.214 4.769.608 3.665-3.316 4.053-5.208 1.603-7.815-3.068-3.267-4.358-3.037-7.006 1.247m95.283 5.653-3.203 3.305 2.928 2.806 2.929 2.806 3.569-2.723c3.685-2.811 3.708-3.427.266-7.25-2.596-2.883-2.685-2.869-6.489 1.056m-83.106 3.062c-2.658 4.3-2.617 5.051.383 7.017 3.458 2.266 4.084 2.08 6.572-1.945l2.2-3.559-2.293-2.441c-3.061-3.258-4.386-3.079-6.862.928m172.641 2.055c-14.914 6.133-20.222 12.735-86.882 108.077a3831.816 3831.816 0 0 1-21.238 30c-9.45 13.185-10.678 15.363-10.147 18 2.638 13.12 1.173 25.366-4.339 36.25-6.405 12.649-19.764 31.495-32.076 45.25-16.982 18.974-19.508 23.954-19.528 38.5-.02 15.397 5.937 24.54 18.339 28.145 33.949 9.87 62.294-34.402 39.148-61.145-10.857-12.544-10.854-12.558 12.744-52.5a64318.04 64318.04 0 0 0 18.012-30.5c1.946-3.3 9.253-15.675 16.239-27.5C286.607 244.873 335 161.354 335 160.374c0-.883-2.883-.169-8.277 2.049m-159.172 5.921c-3.231 4.237-3.198 5.059.306 7.554l2.857 2.035 2.018-2.217c4.281-4.702 4.546-6.382 1.363-8.649-3.702-2.636-3.535-2.668-6.544 1.277m80.411.559-3.462 2.904 2.424 2.596c3.105 3.326 4.316 3.267 8.31-.407l3.266-3.003-2.806-2.497c-3.501-3.115-3.534-3.113-7.732.407m-66.179 5.847c-3.958 4.538-4.066 6.107-.565 8.241 4.265 2.601 4.231 2.609 6.683-1.548 2.749-4.659 2.648-6.284-.466-7.468-3.452-1.312-3.882-1.253-5.652.775m-81.175 2.468c-1.632 2.517-.921 8.844 1.069 9.508 1.87.623 4.362-5.492 3.337-8.188-1.315-3.46-2.741-3.887-4.406-1.32m94.943 5.126c-3.193 4.187-3.184 5.013.084 7.583 3.562 2.802 3.872 2.703 6.813-2.177l2.561-4.25-2.754-2.245c-3.549-2.892-3.684-2.87-6.704 1.089m13.854 6.62c-2.853 4.312-2.642 5.345 1.537 7.506 3.097 1.602 3.703 1.219 7.333-4.628 1.814-2.922 1.452-3.5-3.525-5.625-2.594-1.107-2.897-.952-5.345 2.747m156.595-1.4c-7.86 2.048-16.235 6.582-34.749 18.816l-16.249 10.737 11.531 11.086C347.023 247.9 358 268.581 358 287.486v6.993l4.347-6.49c2.391-3.569 7.848-12.564 12.127-19.989 20.367-35.344 33.437-46.161 57.85-47.879l8.824-.621-2.324-3.398c-3.332-4.872-11.376-9.051-19.841-10.307-6.761-1.004-7.246-1.259-10.516-5.542-9.331-12.221-25.601-17.082-42.467-12.689m-260.734 4.003c-3.068 6.434 1.504 11.702 4.985 5.743 1.729-2.961 1.749-3.409.28-6.25-2.052-3.968-3.182-3.859-5.265.507m119.848 2.015c-4.293 5.458-3.88 7.915 1.513 8.993 2.737.548 3.294.224 5.219-3.038 2.782-4.716 2.728-5.189-.796-7.011-3.76-1.944-3.546-1.983-5.936 1.056m13.562 7.511c-3.044 4.648-2.94 5.141 1.464 6.965 3.063 1.269 3.289 1.19 6.021-2.082 3.583-4.291 3.564-5.55-.111-7.45-4.107-2.124-4.361-2.035-7.374 2.567m-125.67 3.397-2.157 3.49 2.173 3.051c2.396 3.365 3.322 3.091 6.215-1.836 1.674-2.851 1.662-3.054-.323-5.577-2.678-3.405-3.324-3.309-5.908.872m140.627 3.26c-2.737 4.282-2.646 4.675 1.593 6.867 2.986 1.544 3.166 1.516 4.92-.757 3.109-4.03 3.328-6.057.87-8.048-3.259-2.639-4.7-2.261-7.383 1.938m-129.85 6c-3.525 4.042-3.843 5.845-1.43 8.112 2.96 2.781 3.075 2.755 6.24-1.395l2.694-3.532-2.318-2.468c-2.759-2.937-3.197-2.997-5.186-.717m10.799 10.335c-3.598 4.276-3.131 6.313 2.132 9.3 1.979 1.123 6.729-7.146 5.178-9.015-2.833-3.414-4.619-3.483-7.31-.285m173.56 5.503c-.628 1.378-1.142 2.982-1.142 3.565 0 .582-1.103 2.369-2.452 3.972-2.436 2.895-16.133 25.391-26.92 44.213l-5.638 9.839L274 294l2.011 2.824-3.908 3.094c-2.148 1.702-4.514 2.861-5.257 2.576-.743-.285-1.93.411-2.638 1.545-1.151 1.843-.854 2.556 2.794 6.701 14.008 15.914 15.956 30.687 5.745 43.579-3.791 4.787-3.607 4.757 12.253-1.963 20.217-8.565 45.42-24.931 53.41-34.68 17.229-21.027 10.779-52.649-16.254-79.682-10.835-10.835-12.463-11.811-14.014-8.406m-159.895.662c-4.082 5.116-4.336 7.497-1.022 9.595 3.771 2.388 4.197 2.207 6.789-2.873 2.499-4.899 2.539-4.635-.964-6.446-3.561-1.841-3.554-1.841-4.803-.276m11.835 9.118c-2.752 4.452-2.64 5.292.947 7.147 3.647 1.886 4.415 1.495 6.991-3.554l1.991-3.904-2.956-1.528c-4.098-2.119-4.611-1.984-6.973 1.839m150.098 2.558-3.063 3.812 2.946 2.822 2.946 2.823 3.45-3.343c3.8-3.683 3.632-5.44-.797-8.342-2.342-1.534-2.516-1.463-5.482 2.228m-136.279 4.268-2.14 4.194 2.282 1.848c3.04 2.461 4.925 1.935 7.672-2.141 2.998-4.449 2.912-4.935-1.183-6.646-4.552-1.902-4.182-2.055-6.631 2.745m14.669 5.695c-3.17 5.021-3.186 4.741.38 6.585 4.292 2.22 4.85 1.991 7.263-2.974 2.368-4.875 2.007-5.934-2.393-7.02-2.347-.579-3-.155-5.25 3.409m132.618 2.417-3.203 3.305 2.906 2.784c2.836 2.718 2.969 2.743 5.53 1.064 4.109-2.692 4.682-4.506 2.423-7.678-2.553-3.585-3.752-3.503-7.656.525m-116.405 1.444c-4.381 5.023-4.399 7.685-.064 9.333 4.847 1.843 10.229-6.087 6.294-9.273-2.801-2.268-4.291-2.283-6.23-.06m13.915 7.5c-3.995 5.403-4.007 5.591-.497 7.731 4.292 2.617 4.103 2.67 7.203-2.016 2.955-4.464 2.797-5.292-1.417-7.472-2.802-1.449-2.956-1.398-5.289 1.757m111.886 3.811c-3.186 2.797-3.388 3.292-2.345 5.75 1.898 4.473 2.489 4.635 6.721 1.834 4.707-3.115 4.653-2.916 1.958-7.277-2.514-4.069-2.074-4.048-6.334-.307m5.442 15.57c-3.072 2.585-3.573 6.976-1.1 9.64 1.519 1.637 8.952-5.013 8.349-7.469-1.308-5.336-2.915-5.817-7.249-2.171m2.217 15.489c-4.075 2.609-5.961 9.971-2.524 9.853 2.149-.074 7.217-5.74 7.486-8.368.378-3.704-.898-4.086-4.962-1.485m-238.497 2.908c-35.2 8.839-41.496 55.16-8.642 63.577 11.846 3.035 20.737.553 40.712-11.367 23.363-13.941 47.641-24.125 61.465-25.783l5.781-.693-.629-7.131c-.607-6.879-.518-7.284 2.542-11.474 1.745-2.389 3.024-4.492 2.842-4.674-.182-.181-7.078 2.824-15.324 6.679-35.717 16.697-41.004 17.3-50.588 5.77-6.847-8.238-10.039-11.077-14.905-13.256-5.114-2.29-17.268-3.152-23.254-1.648m126.774 2.13c-2.972 3.533-2.813 6.897.487 10.259 3.966 4.04 11.037 1.49 12.499-4.509.88-3.612-3.582-8.908-7.506-8.908-1.94 0-3.653.988-5.48 3.158m50.108 2.709c-2.275 2.374-2.611 3.296-1.772 4.864 2.304 4.305 3.765 4.581 7.315 1.38 3.228-2.911 3.282-3.087 1.795-5.799-2.085-3.801-4.011-3.918-7.338-.445m-179.356 7.646c-19.728 9.977-22.462 33.284-4.7 40.068 19.755 7.544 43.96-17.385 33.049-34.037-5.549-8.468-18.206-11.161-28.349-6.031m148.216 22.174a24129.483 24129.483 0 0 1-15.238 25.622c-1.906 3.194-3.297 5.977-3.09 6.184.627.627 22.974-3.391 28.626-5.147 15.92-4.947 18.464-30.194 4.399-43.668l-2.926-2.804-11.771 19.813m38.425-15.901-3.118 2.787 1.59 3.807 1.591 3.807 4.045-3.203c4.104-3.251 4.505-5.27 1.734-8.734-1.451-1.814-2.36-1.575-5.842 1.536m2.665 15.413c-2.782 2.413-3.982 7.761-1.907 8.499 1.783.633 7.184-4.873 7.526-7.673.412-3.364-2.244-3.754-5.619-.826m-105.078 75.1c-20.031 9.612-24.98 36.617-8.3 45.296 10.819 5.629 28.291-4.735 32.848-19.483 5.666-18.341-8.68-33.427-24.548-25.813" fill-rule="evenodd"/>

</svg>
